<svg width="112" height="20" viewBox="0 0 112 20" fill="none" xmlns="http://www.w3.org/2000/svg">
<path d="M6.58 14.28C5.44 14.28 4.44667 14.01 3.6 13.47C2.76 12.9233 2.10667 12.1433 1.64 11.13C1.17333 10.1167 0.94 8.9 0.94 7.48C0.94 6.01333 1.18 4.78333 1.66 3.79C2.14667 2.79 2.81333 2.03667 3.66 1.53C4.51333 1.01667 5.48667 0.759999 6.58 0.759999C8.09333 0.759999 9.27333 1.12667 10.12 1.86C10.9733 2.59333 11.52 3.54667 11.76 4.72L9.24 5.18C9.03333 4.5 8.70333 3.95 8.25 3.53C7.79667 3.11 7.24 2.9 6.58 2.9C6 2.9 5.47667 3.07 5.01 3.41C4.54333 3.74333 4.17 4.25 3.89 4.93C3.61667 5.61 3.48 6.46 3.48 7.48C3.48 8.44 3.6 9.26667 3.84 9.96C4.08667 10.6533 4.44 11.1867 4.9 11.56C5.36 11.9333 5.92 12.12 6.58 12.12C7.42667 12.12 8.08 11.8967 8.54 11.45C9.00667 10.9967 9.24 10.42 9.24 9.72H11.76C11.76 10.6867 11.55 11.51 11.13 12.19C10.7167 12.8633 10.1233 13.38 9.35 13.74C8.57667 14.1 7.65333 14.28 6.58 14.28ZM18.3558 14.28C17.4691 14.28 16.6658 14.09 15.9458 13.71C15.2324 13.33 14.6658 12.7633 14.2458 12.01C13.8258 11.25 13.6158 10.3 13.6158 9.16C13.6158 8 13.8258 7.04 14.2458 6.28C14.6658 5.52 15.2324 4.95333 15.9458 4.58C16.6658 4.20667 17.4691 4.02 18.3558 4.02C19.2291 4.02 20.0191 4.20667 20.7258 4.58C21.4391 4.95333 22.0058 5.52 22.4258 6.28C22.8458 7.04 23.0558 8 23.0558 9.16C23.0558 10.3 22.8458 11.25 22.4258 12.01C22.0058 12.7633 21.4391 13.33 20.7258 13.71C20.0191 14.09 19.2291 14.28 18.3558 14.28ZM18.2758 12.22C18.7424 12.22 19.1558 12.1067 19.5158 11.88C19.8824 11.6467 20.1691 11.3033 20.3758 10.85C20.5891 10.3967 20.6958 9.83333 20.6958 9.16C20.6958 8.13333 20.4924 7.36 20.0858 6.84C19.6858 6.32 19.1358 6.06 18.4358 6.06C17.9624 6.06 17.5424 6.17667 17.1758 6.41C16.8091 6.63667 16.5191 6.98 16.3058 7.44C16.0991 7.9 15.9958 8.47333 15.9958 9.16C15.9958 10.1733 16.1991 10.9367 16.6058 11.45C17.0191 11.9633 17.5758 12.22 18.2758 12.22ZM26.4239 14V3.12C26.4239 2.42 26.5606 1.85 26.8339 1.41C27.1072 0.969999 27.4672 0.646666 27.9139 0.439999C28.3672 0.226666 28.8572 0.12 29.3839 0.12C29.7106 0.12 30.0472 0.143333 30.3939 0.19C30.7406 0.236666 31.0772 0.293333 31.4039 0.359999L30.9439 2.18C30.7772 2.12 30.6039 2.07333 30.4239 2.04C30.2439 2 30.0706 1.98 29.9039 1.98C29.7172 1.98 29.5406 2.01667 29.3739 2.09C29.2072 2.15667 29.0706 2.27667 28.9639 2.45C28.8572 2.62333 28.8039 2.86 28.8039 3.16V14H26.4239ZM24.9839 5.86V4.3H30.5839V5.86H24.9839ZM33.7677 14V3.12C33.7677 2.42 33.9043 1.85 34.1777 1.41C34.451 0.969999 34.811 0.646666 35.2577 0.439999C35.711 0.226666 36.201 0.12 36.7277 0.12C37.0543 0.12 37.391 0.143333 37.7377 0.19C38.0843 0.236666 38.421 0.293333 38.7477 0.359999L38.2877 2.18C38.121 2.12 37.9477 2.07333 37.7677 2.04C37.5877 2 37.4143 1.98 37.2477 1.98C37.061 1.98 36.8843 2.01667 36.7177 2.09C36.551 2.15667 36.4143 2.27667 36.3077 2.45C36.201 2.62333 36.1477 2.86 36.1477 3.16V14H33.7677ZM32.3277 5.86V4.3H37.9277V5.86H32.3277ZM44.1714 14.28C43.3447 14.28 42.5881 14.0667 41.9014 13.64C41.2147 13.2133 40.6647 12.6167 40.2514 11.85C39.8381 11.0767 39.6314 10.1733 39.6314 9.14C39.6314 8.07333 39.8347 7.15667 40.2414 6.39C40.6547 5.62333 41.2047 5.03667 41.8914 4.63C42.5781 4.22333 43.3381 4.02 44.1714 4.02C44.9447 4.02 45.6114 4.17667 46.1714 4.49C46.7381 4.79667 47.1914 5.21667 47.5314 5.75C47.8781 6.27667 48.1114 6.87333 48.2314 7.54C48.3514 8.20667 48.3581 8.89333 48.2514 9.6H41.5114V8.32H46.5814L46.1214 8.62C46.1414 8.30667 46.1247 7.99 46.0714 7.67C46.0247 7.35 45.9314 7.05667 45.7914 6.79C45.6514 6.52333 45.4514 6.31 45.1914 6.15C44.9381 5.98333 44.6114 5.9 44.2114 5.9C43.7314 5.9 43.3247 6.02 42.9914 6.26C42.6581 6.5 42.4047 6.82667 42.2314 7.24C42.0581 7.65333 41.9714 8.12 41.9714 8.64V9.58C41.9714 10.1267 42.0514 10.61 42.2114 11.03C42.3781 11.45 42.6214 11.78 42.9414 12.02C43.2681 12.26 43.6781 12.38 44.1714 12.38C44.6314 12.38 45.0181 12.2733 45.3314 12.06C45.6447 11.8467 45.8447 11.5267 45.9314 11.1H48.3114C48.2114 11.7267 47.9747 12.28 47.6014 12.76C47.2347 13.2333 46.7581 13.6067 46.1714 13.88C45.5847 14.1467 44.9181 14.28 44.1714 14.28ZM54.7769 14.28C53.9502 14.28 53.1935 14.0667 52.5069 13.64C51.8202 13.2133 51.2702 12.6167 50.8569 11.85C50.4435 11.0767 50.2369 10.1733 50.2369 9.14C50.2369 8.07333 50.4402 7.15667 50.8469 6.39C51.2602 5.62333 51.8102 5.03667 52.4969 4.63C53.1835 4.22333 53.9435 4.02 54.7769 4.02C55.5502 4.02 56.2169 4.17667 56.7769 4.49C57.3435 4.79667 57.7969 5.21667 58.1369 5.75C58.4835 6.27667 58.7169 6.87333 58.8369 7.54C58.9569 8.20667 58.9635 8.89333 58.8569 9.6H52.1169V8.32H57.1869L56.7269 8.62C56.7469 8.30667 56.7302 7.99 56.6769 7.67C56.6302 7.35 56.5369 7.05667 56.3969 6.79C56.2569 6.52333 56.0569 6.31 55.7969 6.15C55.5435 5.98333 55.2169 5.9 54.8169 5.9C54.3369 5.9 53.9302 6.02 53.5969 6.26C53.2635 6.5 53.0102 6.82667 52.8369 7.24C52.6635 7.65333 52.5769 8.12 52.5769 8.64V9.58C52.5769 10.1267 52.6569 10.61 52.8169 11.03C52.9835 11.45 53.2269 11.78 53.5469 12.02C53.8735 12.26 54.2835 12.38 54.7769 12.38C55.2369 12.38 55.6235 12.2733 55.9369 12.06C56.2502 11.8467 56.4502 11.5267 56.5369 11.1H58.9169C58.8169 11.7267 58.5802 12.28 58.2069 12.76C57.8402 13.2333 57.3635 13.6067 56.7769 13.88C56.1902 14.1467 55.5235 14.28 54.7769 14.28ZM66.2823 14.28C65.3823 14.28 64.5523 14.1233 63.7923 13.81C63.039 13.4967 62.4257 13.02 61.9523 12.38C61.4857 11.74 61.2357 10.9267 61.2023 9.94H63.5223C63.5223 10.44 63.6457 10.85 63.8923 11.17C64.139 11.49 64.469 11.73 64.8823 11.89C65.3023 12.0433 65.7623 12.12 66.2623 12.12C66.7423 12.12 67.169 12.0567 67.5423 11.93C67.9223 11.8033 68.219 11.6233 68.4323 11.39C68.6523 11.15 68.7623 10.8667 68.7623 10.54C68.7623 10.1067 68.629 9.76667 68.3623 9.52C68.1023 9.27333 67.6823 9.04667 67.1023 8.84L64.5423 7.82C63.5423 7.42667 62.7757 6.97 62.2423 6.45C61.709 5.93 61.4423 5.21333 61.4423 4.3C61.4423 3.24667 61.859 2.39333 62.6923 1.74C63.5257 1.08667 64.689 0.759999 66.1823 0.759999C67.6357 0.759999 68.759 1.1 69.5523 1.78C70.3457 2.45333 70.7957 3.39333 70.9023 4.6H68.5823C68.4957 4.08667 68.2623 3.67667 67.8823 3.37C67.5023 3.05667 66.9357 2.9 66.1823 2.9C65.5157 2.9 64.989 3.04 64.6023 3.32C64.2157 3.59333 64.0223 3.94 64.0223 4.36C64.0223 4.72 64.1423 5.00667 64.3823 5.22C64.629 5.42667 65.009 5.62667 65.5223 5.82L68.3623 6.92C69.3223 7.29333 70.059 7.76333 70.5723 8.33C71.0857 8.89667 71.3423 9.60667 71.3423 10.46C71.3423 11.24 71.1457 11.9167 70.7523 12.49C70.359 13.0567 69.7857 13.4967 69.0323 13.81C68.279 14.1233 67.3623 14.28 66.2823 14.28ZM77.7962 14.28C77.2229 14.28 76.6963 14.1733 76.2163 13.96C75.7429 13.7467 75.3629 13.42 75.0763 12.98C74.7963 12.54 74.6563 11.98 74.6563 11.3V1.72H77.0163V11.22C77.0163 12.02 77.3963 12.42 78.1563 12.42C78.3896 12.42 78.6229 12.3933 78.8563 12.34C79.0896 12.2867 79.3563 12.2067 79.6563 12.1L79.9963 13.76C79.6229 13.9067 79.2596 14.03 78.9062 14.13C78.5529 14.23 78.1829 14.28 77.7962 14.28ZM73.2963 5.86V4.3H79.6563V5.86H73.2963ZM80.9269 4.3H83.6069L86.1869 11.94H85.7669L87.9869 4.3H90.3869L86.6669 15.76C86.2869 16.9067 85.8169 17.7367 85.2569 18.25C84.7035 18.7633 84.0269 19.02 83.2269 19.02C82.7669 19.02 82.3169 18.9667 81.8769 18.86C81.4435 18.76 81.0002 18.6 80.5469 18.38V16.3C80.9135 16.5267 81.2669 16.6933 81.6069 16.8C81.9535 16.9067 82.3002 16.96 82.6469 16.96C82.9602 16.96 83.2335 16.8733 83.4669 16.7C83.7069 16.5333 83.9135 16.2967 84.0869 15.99C84.2602 15.69 84.4069 15.34 84.5269 14.94L84.8269 14L80.9269 4.3ZM92.485 14V0.279999H94.845V14H92.485ZM102.199 14.28C101.372 14.28 100.615 14.0667 99.9288 13.64C99.2421 13.2133 98.6921 12.6167 98.2788 11.85C97.8654 11.0767 97.6588 10.1733 97.6588 9.14C97.6588 8.07333 97.8621 7.15667 98.2688 6.39C98.6821 5.62333 99.2321 5.03667 99.9188 4.63C100.605 4.22333 101.365 4.02 102.199 4.02C102.972 4.02 103.639 4.17667 104.199 4.49C104.765 4.79667 105.219 5.21667 105.559 5.75C105.905 6.27667 106.139 6.87333 106.259 7.54C106.379 8.20667 106.385 8.89333 106.279 9.6H99.5388V8.32H104.609L104.149 8.62C104.169 8.30667 104.152 7.99 104.099 7.67C104.052 7.35 103.959 7.05667 103.819 6.79C103.679 6.52333 103.479 6.31 103.219 6.15C102.965 5.98333 102.639 5.9 102.239 5.9C101.759 5.9 101.352 6.02 101.019 6.26C100.685 6.5 100.432 6.82667 100.259 7.24C100.085 7.65333 99.9988 8.12 99.9988 8.64V9.58C99.9988 10.1267 100.079 10.61 100.239 11.03C100.405 11.45 100.649 11.78 100.969 12.02C101.295 12.26 101.705 12.38 102.199 12.38C102.659 12.38 103.045 12.2733 103.359 12.06C103.672 11.8467 103.872 11.5267 103.959 11.1H106.339C106.239 11.7267 106.002 12.28 105.629 12.76C105.262 13.2333 104.785 13.6067 104.199 13.88C103.612 14.1467 102.945 14.28 102.199 14.28ZM107.804 12.62C107.804 12.1667 107.958 11.7867 108.264 11.48C108.571 11.1733 108.964 11.02 109.444 11.02C109.924 11.02 110.324 11.1733 110.644 11.48C110.964 11.7867 111.124 12.1667 111.124 12.62C111.124 13.0667 110.964 13.44 110.644 13.74C110.324 14.0333 109.924 14.18 109.444 14.18C108.964 14.18 108.571 14.03 108.264 13.73C107.958 13.43 107.804 13.06 107.804 12.62Z" fill="#333333"/>
</svg>
